<?xml version="1.0" encoding="utf-8"?>
<!-- Generator: Adobe Illustrator 25.2.1, SVG Export Plug-In . SVG Version: 6.00 Build 0)  -->
<svg version="1.1" id="Layer_1" xmlns="http://www.w3.org/2000/svg" xmlns:xlink="http://www.w3.org/1999/xlink" x="0px" y="0px"
	 viewBox="0 0 497.4 105" style="enable-background:new 0 0 497.4 105;" xml:space="preserve">
<style type="text/css">
	.st0{enable-background:new    ;}
	.st1{fill:#FFFFFF;}
</style>
<g id="Layer_2_1_">
	<g id="Layer_1-2">
		<g class="st0">
			<path class="st1" d="M28,61.4H4.5V10.8h22.8c10.3,0,16.4,5.1,16.4,13.1c0,6.1-3.7,10.1-8.6,11.5c5.9,1.2,9.7,6.4,9.7,12.2
				C44.8,56,38.7,61.4,28,61.4z M24.8,20.7h-8.1v10.6h8.1c4,0,6.3-1.8,6.3-5.3C31.1,22.6,28.9,20.7,24.8,20.7z M25.7,40.3h-8.9v11.2
				h9.1c4.1,0,6.5-1.9,6.5-5.5S29.8,40.3,25.7,40.3z"/>
			<path class="st1" d="M70.2,62C58.4,62,49.5,54,49.5,41.3s9.1-20.7,20.9-20.7c11.8,0,20.9,7.9,20.9,20.7S82,62,70.2,62z
				 M70.2,51.3c4.4,0,8.5-3.2,8.5-10c0-6.8-4-10-8.4-10c-4.5,0-8.4,3.2-8.4,10C62,48.1,65.7,51.3,70.2,51.3z"/>
			<path class="st1" d="M116.1,62c-11.8,0-20.7-7.9-20.7-20.7s9.1-20.7,20.9-20.7c11.8,0,20.9,7.9,20.9,20.7S127.9,62,116.1,62z
				 M116.1,51.3c4.4,0,8.5-3.2,8.5-10c0-6.8-4-10-8.4-10c-4.5,0-8.4,3.2-8.4,10C107.9,48.1,111.6,51.3,116.1,51.3z"/>
			<path class="st1" d="M171.4,39.6c0-5.5-3-8.5-7.7-8.5c-4.7,0-7.7,3-7.7,8.5v21.8h-12.3V21.2H156v5.3c2.4-3.4,6.8-5.8,12.2-5.8
				c9.3,0,15.5,6.3,15.5,17.1v23.5h-12.2V39.6z"/>
			<path class="st1" d="M207.4,10.8h32.9v9.9h-20.6v10.7h15.4v9.6h-15.4v20.5h-12.3V10.8z"/>
			<path class="st1" d="M245.7,10.4c0-3.7,3-6.7,7.3-6.7c4.3,0,7.3,3,7.3,6.7c0,3.7-3,6.6-7.3,6.6C248.6,17,245.7,14.1,245.7,10.4z
				 M246.8,21.2h12.3v40.2h-12.3V21.2z"/>
			<path class="st1" d="M295.8,39.6c0-5.5-3-8.5-7.7-8.5s-7.7,3-7.7,8.5v21.8h-12.3V21.2h12.3v5.3c2.4-3.4,6.8-5.8,12.2-5.8
				c9.3,0,15.5,6.3,15.5,17.1v23.5h-12.2V39.6z"/>
			<path class="st1" d="M331.8,20.6c6,0,10.2,2.7,12.4,6.3v-5.7h12.3v40.2h-12.3v-5.7c-2.2,3.5-6.5,6.3-12.5,6.3
				c-9.8,0-17.6-8.1-17.6-20.7C314.1,28.5,322,20.6,331.8,20.6z M335.4,31.4c-4.6,0-8.8,3.5-8.8,9.9c0,6.4,4.2,10,8.8,10
				c4.7,0,8.8-3.5,8.8-9.9S340.1,31.4,335.4,31.4z"/>
			<path class="st1" d="M393.2,39.6c0-5.5-3-8.5-7.7-8.5c-4.7,0-7.7,3-7.7,8.5v21.8h-12.3V21.2h12.3v5.3c2.4-3.4,6.8-5.8,12.2-5.8
				c9.3,0,15.5,6.3,15.5,17.1v23.5h-12.2V39.6z"/>
			<path class="st1" d="M431.7,20.6c10.1,0,17.2,5.5,19.3,15.1h-13.1c-1-2.8-3-4.6-6.4-4.6c-4.4,0-7.4,3.5-7.4,10.2s3,10.2,7.4,10.2
				c3.4,0,5.3-1.7,6.4-4.6H451c-2.1,9.3-9.2,15.1-19.3,15.1c-11.8,0-20.2-7.9-20.2-20.7C411.5,28.6,419.9,20.6,431.7,20.6z"/>
			<path class="st1" d="M475.4,62c-11.8,0-20.3-7.9-20.3-20.7s8.4-20.7,20.3-20.7c11.7,0,20,7.8,20,20c0,1.2-0.1,2.4-0.2,3.6h-27.9
				c0.4,5.3,3.7,7.7,7.6,7.7c3.5,0,5.4-1.7,6.4-3.9h13.1C492.6,55.9,485.4,62,475.4,62z M467.4,37.4h15.4c0-4.4-3.5-6.9-7.6-6.9
				C471.2,30.5,468.1,32.9,467.4,37.4z"/>
		</g>
	</g>
</g>
</svg>
