<?xml version="1.0" encoding="utf-8"?>
<!-- Generator: Adobe Illustrator 25.2.1, SVG Export Plug-In . SVG Version: 6.00 Build 0)  -->
<svg version="1.1" id="Layer_1" xmlns="http://www.w3.org/2000/svg" xmlns:xlink="http://www.w3.org/1999/xlink" x="0px" y="0px"
	 viewBox="0 0 497.4 105" style="enable-background:new 0 0 497.4 105;" xml:space="preserve">
<style type="text/css">
	.st0{enable-background:new    ;}
	.st1{fill:#1E50BC;}
</style>
<g id="Layer_2_1_">
	<g id="Layer_1-2">
		<g class="st0">
			<path class="st1" d="M26.8,75.6H3.2V25H26c10.3,0,16.4,5.1,16.4,13.1c0,6.1-3.7,10.1-8.6,11.5c5.9,1.2,9.7,6.4,9.7,12.2
				C43.5,70.2,37.5,75.6,26.8,75.6z M23.5,34.9h-8.1v10.6h8.1c4,0,6.3-1.8,6.3-5.3C29.9,36.8,27.6,34.9,23.5,34.9z M24.5,54.5h-8.9
				v11.2h9.1c4.1,0,6.5-1.9,6.5-5.5S28.5,54.5,24.5,54.5z"/>
			<path class="st1" d="M68.9,76.2c-11.8,0-20.7-8-20.7-20.7s9.1-20.7,20.9-20.7s20.9,7.9,20.9,20.7S80.8,76.2,68.9,76.2z
				 M68.9,65.4c4.4,0,8.5-3.2,8.5-10s-4-10-8.4-10c-4.5,0-8.4,3.2-8.4,10C60.8,62.2,64.4,65.4,68.9,65.4z"/>
			<path class="st1" d="M114.8,76.2c-11.8,0-20.7-7.9-20.7-20.7s9.1-20.7,20.9-20.7s20.9,7.9,20.9,20.7S126.7,76.2,114.8,76.2z
				 M114.8,65.4c4.4,0,8.5-3.2,8.5-10s-4-10-8.4-10c-4.5,0-8.4,3.2-8.4,10C106.7,62.2,110.3,65.4,114.8,65.4z"/>
			<path class="st1" d="M170.1,53.8c0-5.5-3-8.5-7.7-8.5s-7.7,3-7.7,8.5v21.8h-12.3V35.4h12.3v5.3c2.4-3.4,6.8-5.8,12.2-5.8
				c9.3,0,15.5,6.3,15.5,17.1v23.5h-12.2V53.8H170.1z"/>
			<path class="st1" d="M206.1,25H239v9.9h-20.6v10.7h15.4v9.6h-15.4v20.5h-12.3L206.1,25L206.1,25z"/>
			<path class="st1" d="M244.4,24.6c0-3.7,3-6.7,7.3-6.7c4.3,0,7.3,3,7.3,6.7s-3,6.6-7.3,6.6C247.4,31.2,244.4,28.3,244.4,24.6z
				 M245.6,35.4h12.3v40.2h-12.3V35.4z"/>
			<path class="st1" d="M294.5,53.8c0-5.5-3-8.5-7.7-8.5s-7.7,3-7.7,8.5v21.8h-12.3V35.4h12.3v5.3c2.4-3.4,6.8-5.8,12.2-5.8
				c9.3,0,15.5,6.3,15.5,17.1v23.5h-12.2L294.5,53.8L294.5,53.8z"/>
			<path class="st1" d="M330.5,34.8c6,0,10.2,2.7,12.4,6.3v-5.7h12.3v40.2h-12.3v-5.7c-2.2,3.5-6.5,6.3-12.5,6.3
				c-9.8,0-17.6-8.1-17.6-20.7C312.9,42.7,320.8,34.8,330.5,34.8z M334.1,45.6c-4.6,0-8.8,3.5-8.8,9.9s4.2,10,8.8,10
				c4.7,0,8.8-3.5,8.8-9.9S338.9,45.6,334.1,45.6z"/>
			<path class="st1" d="M392,53.8c0-5.5-3-8.5-7.7-8.5s-7.7,3-7.7,8.5v21.8h-12.3V35.4h12.3v5.3c2.4-3.4,6.8-5.8,12.2-5.8
				c9.3,0,15.5,6.3,15.5,17.1v23.5H392L392,53.8L392,53.8z"/>
			<path class="st1" d="M430.5,34.8c10.1,0,17.2,5.5,19.3,15.1h-13.1c-1-2.8-3-4.6-6.4-4.6c-4.4,0-7.4,3.5-7.4,10.2s3,10.2,7.4,10.2
				c3.4,0,5.3-1.7,6.4-4.6h13.1c-2.1,9.3-9.2,15.1-19.3,15.1c-11.8,0-20.2-7.9-20.2-20.7C410.2,42.8,418.6,34.8,430.5,34.8z"/>
			<path class="st1" d="M474.1,76.2c-11.8,0-20.3-7.9-20.3-20.7s8.4-20.7,20.3-20.7c11.7,0,20,7.8,20,20c0,1.2-0.1,2.4-0.2,3.6H466
				c0.4,5.3,3.7,7.7,7.6,7.7c3.5,0,5.4-1.7,6.4-3.9h13.1C491.4,70.1,484.1,76.2,474.1,76.2z M466.1,51.6h15.4c0-4.4-3.5-6.9-7.6-6.9
				C470,44.7,466.9,47.1,466.1,51.6z"/>
		</g>
	</g>
</g>
</svg>
