<?xml version="1.0" encoding="utf-8"?>
<!-- Generator: Adobe Illustrator 25.2.1, SVG Export Plug-In . SVG Version: 6.00 Build 0)  -->
<svg version="1.1" id="Layer_1" xmlns="http://www.w3.org/2000/svg" xmlns:xlink="http://www.w3.org/1999/xlink" x="0px" y="0px"
	 viewBox="0 0 72 90" style="enable-background:new 0 0 72 90;" xml:space="preserve">
<style type="text/css">
	.st0{fill:#1F65EF;}
</style>
<g id="Layer_2_1_">
	<g id="Layer_1-2">
		<path class="st0" d="M72,11.2v4.5c0,1.2-1,2.2-2.2,2.2H2.2C1,18,0,17,0,15.8v-4.5C0,10,1,9,2.2,9h20.2V4.5C22.5,2,24.5,0,27,0
			c0,0,0,0,0,0h18c2.5,0,4.5,2,4.5,4.5c0,0,0,0,0,0V9h20.2C71,9,72,10,72,11.2z M8.4,81.6c0.3,4.7,4.3,8.4,9,8.4h37.3
			c4.7,0,8.7-3.6,9-8.4L67.5,27h-63L8.4,81.6z"/>
	</g>
</g>
</svg>
