<?xml version="1.0" encoding="utf-8"?>
<!-- Generator: Adobe Illustrator 25.2.1, SVG Export Plug-In . SVG Version: 6.00 Build 0)  -->
<svg version="1.1" id="Layer_1" xmlns="http://www.w3.org/2000/svg" xmlns:xlink="http://www.w3.org/1999/xlink" x="0px" y="0px"
	 viewBox="0 0 78.7 88" style="enable-background:new 0 0 78.7 88;" xml:space="preserve">
<style type="text/css">
	.st0{fill:#1F65EF;}
</style>
<g id="Layer_2_1_">
	<g id="Layer_1-2">
		<path class="st0" d="M37.2,26.4c0.9-1.2,2.6-1.4,3.8-0.4c0.2,0.1,0.3,0.3,0.4,0.4c2.1,2.3,5.7,2.4,8,0.3c0.1-0.1,0.2-0.2,0.3-0.3
			c0.5-0.6,1.3-1,2.1-1v-3c-1.6,0-3.1,0.7-4.1,1.8c-0.9,1.2-2.6,1.4-3.8,0.5c-0.2-0.1-0.3-0.3-0.5-0.5c-2.1-2.3-5.7-2.4-8-0.3
			c-0.1,0.1-0.2,0.2-0.3,0.3c-0.9,1.2-2.6,1.4-3.8,0.4c-0.2-0.1-0.3-0.3-0.4-0.4c-1.1-1.1-2.6-1.8-4.1-1.8v3c0.8,0,1.6,0.4,2.1,1
			c1.1,1.1,2.6,1.8,4.1,1.8C34.6,28.2,36.1,27.5,37.2,26.4z"/>
		<path class="st0" d="M78.7,37.6H64.4V15l-0.3-0.4l0,0l-11-14l0,0L52.7,0H14.2v29.1H0V88h78.7V37.6z M53.5,5.8l6.4,8.1h-6.4V5.8z
			 M17.2,3h33.2v14h11v20.6H49.2l0.5-0.4c0.5-0.6,1.3-1,2.1-1v-3c-1.6,0-3.1,0.7-4.1,1.8c-0.9,1.2-2.6,1.4-3.8,0.5
			c-0.2-0.1-0.3-0.3-0.5-0.5c-2.1-2.3-5.7-2.4-8-0.3c-0.1,0.1-0.2,0.2-0.3,0.3L35,35.2l-5.1-6.1H17.2V3z M41.9,37.6H37l-0.1-0.1
			l0.3-0.3c0.9-1.2,2.6-1.4,3.8-0.4c0.2,0.1,0.3,0.3,0.4,0.4L41.9,37.6z M75.7,85H3V32.1h25.4l2.1,2.5l3.6,4.3l1.5,1.7h40L75.7,85
			L75.7,85z"/>
	</g>
</g>
</svg>
