<?xml version="1.0" encoding="utf-8"?>
<!-- Generator: Adobe Illustrator 25.2.1, SVG Export Plug-In . SVG Version: 6.00 Build 0)  -->
<svg version="1.1" id="Layer_1" xmlns="http://www.w3.org/2000/svg" xmlns:xlink="http://www.w3.org/1999/xlink" x="0px" y="0px"
	 viewBox="0 0 88 82" style="enable-background:new 0 0 88 82;" xml:space="preserve">
<style type="text/css">
	.st0{fill:#1F65EF;}
</style>
<g id="Layer_2_1_">
	<g id="Layer_1-2">
		<path class="st0" d="M9.4,0C4.1,0.1-0.1,4.4,0,9.7v47.4c-0.1,5.3,4.1,9.6,9.4,9.7h42.9l24.1,14.9c0.9,0.6,2.2,0.3,2.8-0.6
			c0.2-0.3,0.3-0.7,0.3-1.1v-2.1c0-2.6,0-6.6,0-11.3c4.9-0.5,8.5-4.6,8.5-9.5V9.7c0.1-5.3-4.1-9.6-9.4-9.7H9.4z M9.4,4h69.2
			c3,0,5.4,2.5,5.4,5.5c0,0.1,0,0.1,0,0.2v47.4c0.1,3-2.2,5.6-5.2,5.7c0,0-0.1,0-0.1,0c-1.7-0.1-3,1.2-3.1,2.9c0,0.1,0,0.1,0,0.2
			c0,4.5,0,7.8,0,10.5L54.2,63.2l0,0c-0.5-0.3-1.1-0.5-1.6-0.5H9.4c-3,0-5.4-2.5-5.4-5.5c0-0.1,0-0.1,0-0.2V9.7
			C3.9,6.7,6.2,4.1,9.2,4C9.3,4,9.4,4,9.4,4z M43.8,14.3c-1,0.1-1.8,1-1.8,2v18.2c0,1.1,0.9,2,2,2c1.1,0,2-0.9,2-2V16.3
			c0-1.1-0.9-2-2-2L43.8,14.3z M44,42.2c-1.8,0-3.3,1.5-3.3,3.3c0,1.8,1.5,3.3,3.3,3.3c1.8,0,3.3-1.5,3.3-3.3c0,0,0,0,0,0
			C47.3,43.7,45.8,42.2,44,42.2z"/>
	</g>
</g>
</svg>
