<?xml version="1.0" encoding="utf-8"?>
<!-- Generator: Adobe Illustrator 25.2.1, SVG Export Plug-In . SVG Version: 6.00 Build 0)  -->
<svg version="1.1" id="Layer_1" xmlns="http://www.w3.org/2000/svg" xmlns:xlink="http://www.w3.org/1999/xlink" x="0px" y="0px"
	 viewBox="0 0 37.1 50" style="enable-background:new 0 0 37.1 50;" xml:space="preserve">
<style type="text/css">
	.st0{fill:#1F65EF;}
</style>
<g id="Layer_2_1_">
	<g id="Layer_1-2">
		<path class="st0" d="M18.6,0C8.3,0,0,8.3,0,18.5c0,6.1,3,11.8,8,15.3v6c0,0.6,0.4,1,1,1h19.1c0.6,0,1-0.4,1-1v-6
			C37.5,28,39.6,16.4,33.8,8C30.4,3,24.7,0,18.6,0z M27.1,38.8H10v-4.5h17.1V38.8z M27.8,32.3H9.4c-7.6-5.1-9.7-15.4-4.6-23
			s15.4-9.7,23-4.6s9.7,15.4,4.6,23C31.1,29.5,29.6,31.1,27.8,32.3z"/>
		<path class="st0" d="M15.3,48c-0.6,0-1,0.4-1,1s0.4,1,1,1h6.6c0.6,0,1-0.4,1-1s-0.4-1-1-1H15.3z"/>
		<path class="st0" d="M26.5,44.4c0-0.6-0.4-1-1-1H11.6c-0.6,0-1,0.4-1,1s0.4,1,1,1h13.9C26.1,45.4,26.5,45,26.5,44.4z"/>
	</g>
</g>
</svg>
