<?xml version="1.0" encoding="utf-8"?>
<!-- Generator: Adobe Illustrator 25.2.1, SVG Export Plug-In . SVG Version: 6.00 Build 0)  -->
<svg version="1.1" id="Layer_1" xmlns="http://www.w3.org/2000/svg" xmlns:xlink="http://www.w3.org/1999/xlink" x="0px" y="0px"
	 viewBox="0 0 86 86" style="enable-background:new 0 0 86 86;" xml:space="preserve">
<style type="text/css">
	.st0{fill:#1F65EF;}
</style>
<g id="Layer_2_1_">
	<g id="Layer_1-2">
		<path class="st0" d="M58.8,0c-0.3,0.1-0.6,0.3-0.7,0.6l-1.8,4.6l-4.6,1.8c-0.5,0.2-0.8,0.7-0.6,1.3c0,0,0,0,0,0
			c0.1,0.3,0.3,0.5,0.6,0.6l4.6,1.9l1.8,4.6c0.2,0.5,0.8,0.8,1.3,0.6c0,0,0,0,0,0c0.3-0.1,0.5-0.3,0.6-0.6l1.8-4.6l4.6-1.9
			c0.5-0.2,0.8-0.7,0.7-1.2c0,0,0,0,0,0c-0.1-0.3-0.3-0.5-0.6-0.6l-4.6-1.8L60,0.6C59.8,0.2,59.4,0,59,0L58.8,0z M59,3.7l1.1,2.7
			c0.1,0.3,0.3,0.5,0.6,0.6L63.3,8l-2.7,1.1c-0.3,0.1-0.5,0.3-0.6,0.6L59,12.3l-1-2.7c-0.1-0.3-0.3-0.5-0.6-0.6L54.7,8l2.7-1.1
			c0.3-0.1,0.5-0.3,0.6-0.5L59,3.7z M78,19c-0.4,0-0.7,0.3-0.9,0.6l-1.8,4.6l-4.6,1.9c-0.5,0.1-0.8,0.7-0.7,1.2c0,0,0,0,0,0.1
			c0.1,0.3,0.3,0.5,0.6,0.6l4.6,1.9l1.8,4.6c0.2,0.5,0.8,0.8,1.3,0.6c0,0,0,0,0,0c0.3-0.1,0.5-0.3,0.6-0.6l1.8-4.6l4.6-1.9
			c0.5-0.2,0.8-0.8,0.6-1.3c-0.1-0.3-0.3-0.5-0.6-0.6l-4.6-1.9L79,19.6C78.8,19.2,78.4,19,78,19z M55.8,22c-0.2,0-0.4,0.1-0.5,0.3
			l-55,55c-0.4,0.4-0.4,1,0,1.4l7,7c0.4,0.4,1,0.4,1.4,0l0,0l55-55c0.4-0.4,0.4-1,0-1.4l-7-7C56.5,22,56.1,21.9,55.8,22z M78,22.7
			l1.1,2.7c0.1,0.3,0.3,0.5,0.6,0.6l2.7,1.1l-2.7,1.1c-0.3,0.1-0.5,0.3-0.6,0.6L78,31.3l-1-2.7c-0.1-0.3-0.3-0.5-0.6-0.6L73.7,27
			l2.7-1.1c0.3-0.1,0.5-0.3,0.6-0.6L78,22.7z M56,24.4l5.6,5.6L53,38.6L47.5,33L56,24.4z M46,34.4l5.6,5.6L8,83.6L2.5,78L46,34.4z"
			/>
	</g>
</g>
</svg>
