<?xml version="1.0" encoding="utf-8"?>
<!-- Generator: Adobe Illustrator 25.2.1, SVG Export Plug-In . SVG Version: 6.00 Build 0)  -->
<svg version="1.1" id="Layer_1" xmlns="http://www.w3.org/2000/svg" xmlns:xlink="http://www.w3.org/1999/xlink" x="0px" y="0px"
	 viewBox="0 0 48 46.6" style="enable-background:new 0 0 48 46.6;" xml:space="preserve">
<style type="text/css">
	.st0{fill:#1F65EF;}
</style>
<g id="Layer_2_1_">
	<g id="Layer_1-2">
		<path class="st0" d="M4,46.6h40c2.2,0,4-1.8,4-4V28.1c0-0.1,0-0.1,0-0.2c0,0,0-0.1,0-0.1L40.2,3.7c-0.1-0.4-0.5-0.7-1-0.7H32
			c-0.6,0-1,0.4-1,1s0.4,1,1,1h6.5l7.1,22.1H2.4L9.4,5H16c0.6,0,1-0.4,1-1s-0.4-1-1-1H8.7C8.3,3,7.9,3.3,7.8,3.7L0.1,27.8
			c0,0,0,0.1,0,0.1c0,0.1,0,0.1,0,0.2v14.5C0,44.8,1.8,46.6,4,46.6z M46,42.6c0,1.1-0.9,2-2,2H4c-1.1,0-2-0.9-2-2V29.1h44V42.6z"/>
		<path class="st0" d="M15.3,39.2h17.5c0.6,0,1-0.4,1-1v-4.2c0-0.6-0.4-1-1-1s-1,0.4-1,1v3.2H16.3v-3.2c0-0.6-0.4-1-1-1s-1,0.4-1,1
			v4.2C14.3,38.7,14.7,39.2,15.3,39.2z"/>
		<path class="st0" d="M24,19.9c0.6,0,1-0.4,1-1V3.4l4.8,4.8c0.4,0.4,1,0.4,1.4,0c0.4-0.4,0.4-1,0-1.4l-6.5-6.5
			c-0.1-0.1-0.2-0.2-0.4-0.2h-0.1C24.2,0,24.1,0,24,0l0,0c-0.3,0-0.5,0.1-0.7,0.3l-6.5,6.5c-0.4,0.4-0.3,1.1,0.1,1.4
			c0.4,0.3,0.9,0.3,1.3,0L23,3.4v15.5C23,19.5,23.4,19.9,24,19.9z"/>
	</g>
</g>
</svg>
